<svg id="Layer_3" data-name="Layer 3" xmlns="http://www.w3.org/2000/svg" width="699.2148" height="203.5968" viewBox="0 0 699.2148 203.5968"><defs><style>.cls-1{fill:000000;}</style></defs><path class="cls-1" d="M135,21.4032A113.0034,113.0034,0,0,1,224.8,203H45.2A113.0021,113.0021,0,0,1,135,21.4032m0-11A124.001,124.001,0,0,0,39.9181,214H230.0819A124.001,124.001,0,0,0,135,10.4032Z" transform="translate(-11 -10.4032)"/><path class="cls-1" d="M155.5576,181.7666c3.4536,15.2939,13.65,24.34,32.563,24.34,21.0508,0,29.1089-10.5253,29.1089-23.0244,0-12.9922-5.7559-21.0507-31.0825-27.3007-24.34-6.085-34.8653-13.9786-34.8653-30.5889,0-15.13,11.0186-29.2739,35.6875-29.2739,25.3267,0,36.0166,15.4594,37.4966,29.4384h-9.2095c-2.6313-12.3344-10.69-21.2153-28.7807-21.2153-16.61,0-25.6553,7.73-25.6553,20.5571,0,12.6636,7.565,17.5972,28.78,22.86,32.3984,8.0586,37.168,21.0508,37.168,34.8652,0,16.94-12.3345,31.5762-38.9771,31.5762-28.78,0-39.3057-16.7744-41.4438-32.2334Z" transform="translate(-11 -10.4032)"/><path class="cls-1" d="M61.8174,158.9063v53.7783H52.7725V97.563H94.0518c22.6953,0,34.7006,12.17,34.7006,30.2607,0,14.6372-8.7163,24.1753-21.5439,26.9712,11.8408,2.7959,19.7349,10.5254,19.7349,30.0957v4.44c0,8.0585-.6578,18.913,1.48,23.3535h-9.0449c-2.1382-4.9336-1.6445-14.1436-1.6445-24.0108v-2.9609c0-18.9121-5.5918-26.8066-27.6294-26.8066Zm0-8.2227H89.6113c20.2285,0,29.6026-7.5654,29.6026-22.6953,0-14.1436-9.21-22.2022-27.1358-22.2022H61.8174Z" transform="translate(-11 -10.4032)"/><path class="cls-1" d="M297.36,106.7h3.96l6,15.12,6.06-15.12h4.02l-7.44,18.18,8.16,19.26L333.54,106.4h4.56L320.04,149h-3.72l-8.94-21.06-9,21.06h-3.66l-18-42.6h4.5L296.7,144.14l8.1-19.26Z" transform="translate(-11 -10.4032)"/><path class="cls-1" d="M352.92,149.6a15.0184,15.0184,0,0,1-6.2695-1.29,15.3616,15.3616,0,0,1-4.9512-3.54A16.442,16.442,0,0,1,338.43,139.58a16.8789,16.8789,0,0,1-1.17-6.3,16.4978,16.4978,0,0,1,1.17-6.21,16.09,16.09,0,0,1,3.24-5.1006,15.3869,15.3869,0,0,1,4.95-3.48,15.8092,15.8092,0,0,1,12.51,0,14.9163,14.9163,0,0,1,4.89,3.51,16.4844,16.4844,0,0,1,4.32,11.22v.96a2.4041,2.4041,0,0,1-.0605.66H341.52a13.1813,13.1813,0,0,0,1.17,4.65,12.7511,12.7511,0,0,0,2.5507,3.69,11.3833,11.3833,0,0,0,3.57,2.4307,10.6733,10.6733,0,0,0,4.2891.87,11.0753,11.0753,0,0,0,3-.4209,12.07,12.07,0,0,0,2.76-1.14,10.29,10.29,0,0,0,2.2812-1.77,7.597,7.597,0,0,0,1.5586-2.3106l3.541.96a10.39,10.39,0,0,1-2.041,3.15,14.1921,14.1921,0,0,1-3.0586,2.46,15.0068,15.0068,0,0,1-3.8408,1.62A16.6553,16.6553,0,0,1,352.92,149.6Zm11.52-17.88a12.5466,12.5466,0,0,0-3.69-8.16,11.167,11.167,0,0,0-3.54-2.34,11.0267,11.0267,0,0,0-4.29-.84,11.241,11.241,0,0,0-4.32.84,11.0963,11.0963,0,0,0-3.57,2.34,11.5111,11.5111,0,0,0-2.459,3.6006,13.6063,13.6063,0,0,0-1.11,4.5595Z" transform="translate(-11 -10.4032)"/><path class="cls-1" d="M389.94,149.6a12.9547,12.9547,0,0,1-6.8106-1.8594,13.7,13.7,0,0,1-4.83-4.8V149h-3.66V105.2h4.08v19.08a17.8628,17.8628,0,0,1,5.041-5.13,12.082,12.082,0,0,1,6.84-1.95,12.4537,12.4537,0,0,1,5.91,1.38,13.9181,13.9181,0,0,1,4.4394,3.6894,17.3423,17.3423,0,0,1,2.82,5.2207,18.4092,18.4092,0,0,1,.99,5.97,17.1123,17.1123,0,0,1-1.1407,6.24,16.4,16.4,0,0,1-3.12,5.13,14.772,14.772,0,0,1-4.71,3.48A13.5182,13.5182,0,0,1,389.94,149.6Zm-.961-3.6a10.5052,10.5052,0,0,0,4.711-1.05,11.513,11.513,0,0,0,3.66-2.82,13.5909,13.5909,0,0,0,2.3994-4.0195,12.8055,12.8055,0,0,0,.87-4.65,14.0352,14.0352,0,0,0-.81-4.74,13.19,13.19,0,0,0-2.2793-4.05,11.0765,11.0765,0,0,0-3.54-2.82,9.8807,9.8807,0,0,0-4.53-1.05,9.5213,9.5213,0,0,0-3.4805.63,11.7608,11.7608,0,0,0-3,1.71,13.8463,13.8463,0,0,0-2.459,2.49,15.7123,15.7123,0,0,0-1.8007,2.97V138.32a6.6382,6.6382,0,0,0,1.291,3.0293,10.74,10.74,0,0,0,2.5195,2.4307,13.1917,13.1917,0,0,0,3.18,1.62A9.86,9.86,0,0,0,388.9785,146Z" transform="translate(-11 -10.4032)"/><path class="cls-1" d="M427.7979,149V106.4h14.46a21.9464,21.9464,0,0,1,8.91,1.68,18.1291,18.1291,0,0,1,6.3593,4.56,19.2268,19.2268,0,0,1,3.8409,6.75,25.9474,25.9474,0,0,1,1.29,8.25,25.4022,25.4022,0,0,1-1.44,8.79,19.0757,19.0757,0,0,1-4.11,6.7207,18.36,18.36,0,0,1-6.42,4.3193,22.1255,22.1255,0,0,1-8.43,1.53Zm30.66-21.36a22.0077,22.0077,0,0,0-1.08-7.05,15.9447,15.9447,0,0,0-3.1494-5.55,14.1245,14.1245,0,0,0-5.07-3.63,17.3482,17.3482,0,0,0-6.9-1.29h-10.26v35.16h10.26a17.02,17.02,0,0,0,6.99-1.3506,14.2123,14.2123,0,0,0,5.07-3.72,16.159,16.159,0,0,0,3.09-5.58A22.388,22.388,0,0,0,458.458,127.64Z" transform="translate(-11 -10.4032)"/><path class="cls-1" d="M483.3574,149.6a15.0184,15.0184,0,0,1-6.2695-1.29,15.3616,15.3616,0,0,1-4.9512-3.54,16.4331,16.4331,0,0,1-3.2695-5.1894,16.8889,16.8889,0,0,1-1.17-6.3,16.5075,16.5075,0,0,1,1.17-6.21,16.09,16.09,0,0,1,3.24-5.1006,15.3869,15.3869,0,0,1,4.95-3.48,15.8092,15.8092,0,0,1,12.51,0,14.9163,14.9163,0,0,1,4.89,3.51,16.4844,16.4844,0,0,1,4.32,11.22v.96a2.4041,2.4041,0,0,1-.0605.66h-26.76a13.1813,13.1813,0,0,0,1.17,4.65,12.7511,12.7511,0,0,0,2.5507,3.69,11.3833,11.3833,0,0,0,3.57,2.4307,10.6733,10.6733,0,0,0,4.2891.87,11.0753,11.0753,0,0,0,3-.4209,12.07,12.07,0,0,0,2.76-1.14,10.29,10.29,0,0,0,2.2812-1.77,7.597,7.597,0,0,0,1.5586-2.3106l3.541.96a10.39,10.39,0,0,1-2.041,3.15,14.1921,14.1921,0,0,1-3.0586,2.46,15.0068,15.0068,0,0,1-3.8408,1.62A16.6553,16.6553,0,0,1,483.3574,149.6Zm11.52-17.88a12.5466,12.5466,0,0,0-3.69-8.16,11.167,11.167,0,0,0-3.54-2.34,11.0267,11.0267,0,0,0-4.29-.84,11.241,11.241,0,0,0-4.32.84,11.0963,11.0963,0,0,0-3.57,2.34,11.5111,11.5111,0,0,0-2.459,3.6006,13.6063,13.6063,0,0,0-1.11,4.5595Z" transform="translate(-11 -10.4032)"/><path class="cls-1" d="M513.5977,149,500.877,117.74h4.2l10.74,27.4795,10.8-27.4795h3.96L517.8574,149Z" transform="translate(-11 -10.4032)"/><path class="cls-1" d="M548.6377,149.6a15.0263,15.0263,0,0,1-6.27-1.29,15.3426,15.3426,0,0,1-4.9492-3.54,16.434,16.434,0,0,1-3.27-5.1894,16.869,16.869,0,0,1-1.17-6.3,16.4881,16.4881,0,0,1,1.17-6.21,16.0885,16.0885,0,0,1,3.24-5.1006,15.3978,15.3978,0,0,1,4.95-3.48,15.2223,15.2223,0,0,1,17.4,3.51,16.4773,16.4773,0,0,1,4.3193,11.22v.96a2.4518,2.4518,0,0,1-.06.66h-26.76a13.1385,13.1385,0,0,0,1.17,4.65,12.7672,12.7672,0,0,0,2.5488,3.69,11.4269,11.4269,0,0,0,3.57,2.4307,10.6829,10.6829,0,0,0,4.2911.87,11.0917,11.0917,0,0,0,3-.4209,12.105,12.105,0,0,0,2.76-1.14,10.2335,10.2335,0,0,0,2.2793-1.77,7.622,7.622,0,0,0,1.5606-2.3106l3.539.96a10.386,10.386,0,0,1-2.039,3.15,14.2285,14.2285,0,0,1-3.0606,2.46,14.97,14.97,0,0,1-3.84,1.62A16.6559,16.6559,0,0,1,548.6377,149.6Zm11.52-17.88a12.6625,12.6625,0,0,0-1.17-4.59,12.505,12.505,0,0,0-2.52-3.57,11.1775,11.1775,0,0,0-3.54-2.34,11.0262,11.0262,0,0,0-4.29-.84,11.2356,11.2356,0,0,0-4.3193.84,11.0655,11.0655,0,0,0-3.57,2.34,11.5143,11.5143,0,0,0-2.4609,3.6006,13.632,13.632,0,0,0-1.1094,4.5595Z" transform="translate(-11 -10.4032)"/><path class="cls-1" d="M570.5371,105.2h4.08v36.72a3.7533,3.7533,0,0,0,.96,2.73,3.5877,3.5877,0,0,0,2.7.9892,8.1066,8.1066,0,0,0,1.56-.18,10.3365,10.3365,0,0,0,1.6807-.48l.7187,3.3a13.3933,13.3933,0,0,1-2.789.7793,16.274,16.274,0,0,1-2.85.3008,6.0648,6.0648,0,0,1-4.4414-1.5909,5.9788,5.9788,0,0,1-1.6192-4.47Z" transform="translate(-11 -10.4032)"/><path class="cls-1" d="M599.9961,149.6a14.8219,14.8219,0,0,1-6.24-1.29,15.3061,15.3061,0,0,1-4.89-3.51,15.9082,15.9082,0,0,1-3.21-5.16,16.9419,16.9419,0,0,1-1.1407-6.18,16.7432,16.7432,0,0,1,1.17-6.24,16.4111,16.4111,0,0,1,3.24-5.16,15.7757,15.7757,0,0,1,4.8906-3.54,14.4052,14.4052,0,0,1,6.18-1.3193,14.6081,14.6081,0,0,1,6.21,1.3193,15.693,15.693,0,0,1,4.9209,3.54,16.39,16.39,0,0,1,3.2392,5.16,16.7213,16.7213,0,0,1,1.17,6.24,16.9411,16.9411,0,0,1-1.14,6.18,15.9126,15.9126,0,0,1-3.211,5.16,15.2093,15.2093,0,0,1-4.92,3.51A15.0217,15.0217,0,0,1,599.9961,149.6Zm-11.34-16.08a13.0378,13.0378,0,0,0,.9,4.8907,13.27,13.27,0,0,0,2.43,3.96,10.98,10.98,0,0,0,3.6,2.67,10.3467,10.3467,0,0,0,4.41.96,10.09,10.09,0,0,0,4.41-.99,11.7075,11.7075,0,0,0,3.63-2.7,12.843,12.843,0,0,0,2.46-3.9893,13.8116,13.8116,0,0,0,0-9.81,12.7774,12.7774,0,0,0-2.46-4.02,11.7075,11.7075,0,0,0-3.63-2.7,10.09,10.09,0,0,0-4.41-.99,9.8947,9.8947,0,0,0-4.38.99,11.6345,11.6345,0,0,0-3.6006,2.7295,13.169,13.169,0,0,0-2.459,4.0508A13.5048,13.5048,0,0,0,588.6563,133.52Z" transform="translate(-11 -10.4032)"/><path class="cls-1" d="M638.3359,149.6a12.343,12.343,0,0,1-6.99-2.01,15.9837,15.9837,0,0,1-4.8906-5.07V161.78h-4.08V117.74h3.66v6.06a15.161,15.161,0,0,1,4.98-4.77,12.7436,12.7436,0,0,1,6.66-1.83,13.0982,13.0982,0,0,1,5.9394,1.35,15.26,15.26,0,0,1,4.68,3.6006,16.72,16.72,0,0,1,3.09,5.1894,17.0245,17.0245,0,0,1,1.1113,6.0606,18.9005,18.9005,0,0,1-1.02,6.2392,15.9054,15.9054,0,0,1-2.91,5.16,13.9712,13.9712,0,0,1-4.5,3.51A12.7469,12.7469,0,0,1,638.3359,149.6Zm-1.1406-3.6a9.775,9.775,0,0,0,4.59-1.08,11.4269,11.4269,0,0,0,3.541-2.85,12.8469,12.8469,0,0,0,2.25-4.02,14.1338,14.1338,0,0,0,.7793-4.6494,12.95,12.95,0,0,0-.9-4.8008,13.2617,13.2617,0,0,0-2.459-4.02,11.7124,11.7124,0,0,0-3.69-2.76,10.4986,10.4986,0,0,0-4.5909-1.02,9.4552,9.4552,0,0,0-3.2695.63,13.4249,13.4249,0,0,0-3.18,1.6807,11.31,11.31,0,0,0-2.5195,2.46,6.6169,6.6169,0,0,0-1.291,2.97v9.6a14.3255,14.3255,0,0,0,1.83,3.12,12.8876,12.8876,0,0,0,2.52,2.49,12.02,12.02,0,0,0,3.03,1.65A9.5852,9.5852,0,0,0,637.1953,146Z" transform="translate(-11 -10.4032)"/><path class="cls-1" d="M672.8945,149.6a15.0184,15.0184,0,0,1-6.2695-1.29,15.3616,15.3616,0,0,1-4.9512-3.54,16.4331,16.4331,0,0,1-3.2695-5.1894,16.8889,16.8889,0,0,1-1.17-6.3,16.5075,16.5075,0,0,1,1.17-6.21,16.09,16.09,0,0,1,3.24-5.1006,15.3869,15.3869,0,0,1,4.95-3.48,15.8092,15.8092,0,0,1,12.51,0,14.9163,14.9163,0,0,1,4.89,3.51,16.4851,16.4851,0,0,1,4.32,11.22v.96a2.403,2.403,0,0,1-.0606.66h-26.76a13.1813,13.1813,0,0,0,1.17,4.65,12.7511,12.7511,0,0,0,2.5507,3.69,11.3826,11.3826,0,0,0,3.57,2.4307,10.6725,10.6725,0,0,0,4.289.87,11.0753,11.0753,0,0,0,3-.4209,12.07,12.07,0,0,0,2.76-1.14,10.29,10.29,0,0,0,2.2812-1.77,7.5952,7.5952,0,0,0,1.5586-2.3106l3.541.96a10.39,10.39,0,0,1-2.041,3.15,14.1921,14.1921,0,0,1-3.0586,2.46,15.0068,15.0068,0,0,1-3.8408,1.62A16.6553,16.6553,0,0,1,672.8945,149.6Zm11.52-17.88a12.5466,12.5466,0,0,0-3.6895-8.16,11.167,11.167,0,0,0-3.54-2.34,11.0263,11.0263,0,0,0-4.29-.84,11.241,11.241,0,0,0-4.32.84,11.0963,11.0963,0,0,0-3.57,2.34,11.5111,11.5111,0,0,0-2.459,3.6006,13.6063,13.6063,0,0,0-1.11,4.5595Z" transform="translate(-11 -10.4032)"/><path class="cls-1" d="M710.2148,121.34a12.8436,12.8436,0,0,0-7.2011,2.28,11.4984,11.4984,0,0,0-4.3194,5.9395V149h-4.08V117.74h3.84v7.5a14.2068,14.2068,0,0,1,4.6807-5.6406,10.845,10.845,0,0,1,6.2988-2.04,4.2126,4.2126,0,0,1,.7812.06Z" transform="translate(-11 -10.4032)"/></svg>